# xmcd
#
# Track frame offsets:
#	150
#	16881
#	32758
#	50815
#	77995
#	91768
#	108930
#	127043
#	146594
#	160836
#	179476
#	206975
#
# Disc length: 3017 seconds
#
# Revision: 1
# Processed by: cddbd v1.5.2PL0 Copyright (c) Steve Scherf et al.
# Submitted via: audiograbber 1.83.01
#
DISCID=a60bc70c
DTITLE=John Anderson - Easy Money
DYEAR=2007
DGENRE=Country
TTITLE0=Easy Money
TTITLE1=A Woman Knows
TTITLE2=Funky Country
TTITLE3=Bonnie Blue
TTITLE4=If Her Lovin' Don't Kill Me
TTITLE5=Something To Drink About
TTITLE6=Weeds
TTITLE7=You Allready Know My Love
TTITLE8=Brown Liquor
TTITLE9=I Can't Make Her Cry Anymore
TTITLE10=Willie's Guitar 
TTITLE11=Data Track
EXTD=
EXTT0=
EXTT1=
EXTT2=
EXTT3=
EXTT4=
EXTT5=
EXTT6=
EXTT7=
EXTT8=
EXTT9=
EXTT10=(Feat. Willie Nelson and Merle Haggard)
EXTT11=
PLAYORDER=
